<svg width="512" height="512" xmlns="http://www.w3.org/2000/svg">

 <g>
  <title>background</title>
  <rect fill="none" id="canvas_background" height="402" width="582" y="-1" x="-1"/>
 </g>
 <g>
  <title>Layer 1</title>
  <path fill="#a9a9a9" id="svg_2" d="m89.049,261.047c0.064,16.812 12.396,30.394 27.54,30.325c72.499,-0.295 -11.817,0.174 108.291,-0.307c0,0 -14.843,57.825 -14.737,85.411c0.242,60.151 43.364,53.781 49.485,44.361c11.353,-102.304 27.949,-116.948 74.134,-137.289c0.59,-0.258 1.501,-0.519 2.659,-0.772c1.302,9.753 9.519,17.35 19.646,17.448l44.932,0.45c11.104,0.112 20.19,-8.796 20.305,-19.899l1.646,-163.125c0.113,-11.096 -8.8,-20.19 -19.903,-20.3l-44.932,-0.454c-11.104,-0.109 -20.194,8.8 -20.308,19.903l-0.019,1.997c-23.527,-9.227 -44.993,-33.771 -65.875,-33.688l-97.19,0.386c-3.151,0.015 -6.17,0.802 -8.964,2.122c-11.56,3.605 -20.066,15.303 -20.009,29.285c0.007,2.338 0.293,4.574 0.75,6.742c-11.83,3.409 -20.582,15.268 -20.531,29.478c0.03,7.316 2.491,13.944 6.401,19.184c-0.104,0.345 -0.21,0.685 -0.314,1.033l-2.868,0.015c-15.147,0.061 -27.371,13.737 -27.3,30.549c0.045,11.104 5.493,20.689 13.507,25.982c-0.07,0.223 -0.134,0.454 -0.201,0.681c-14.606,0.737 -26.209,14.102 -26.145,30.482zm290.496,-149.246c8.894,-0.042 16.135,7.135 16.176,16.025c0.042,8.891 -7.135,16.135 -16.024,16.177c-8.895,0.042 -16.136,-7.135 -16.177,-16.025c-0.042,-8.891 7.134,-16.135 16.025,-16.177z"/>
 </g>
</svg>