<svg width="512" height="512" xmlns="http://www.w3.org/2000/svg">

 <g>
  <title>background</title>
  <rect fill="none" id="canvas_background" height="402" width="582" y="-1" x="-1"/>
 </g>
 <g>
  <title>Layer 1</title>
  <path fill="#a9a9a9" id="svg_2" d="m115.005,282.065c0.064,0.228 0.132,0.458 0.2,0.681c-7.99,5.326 -13.392,14.943 -13.384,26.047c0.007,16.813 12.295,30.431 27.442,30.42l2.868,0c0.105,0.348 0.211,0.692 0.317,1.032c-3.881,5.26 -6.31,11.898 -6.31,19.215c0.015,14.209 8.822,26.028 20.67,29.38c-0.446,2.171 -0.726,4.411 -0.718,6.745c0.007,13.982 8.565,25.642 20.141,29.19c2.8,1.309 5.827,2.081 8.974,2.081l97.198,-0.068c20.879,-0.012 42.231,-24.655 65.713,-33.995l0.03,1.998c0.166,11.106 9.298,19.971 20.398,19.808l44.928,-0.661c11.107,-0.163 19.975,-9.3 19.809,-20.396l-2.406,-163.112c-0.163,-11.103 -9.291,-19.971 -20.398,-19.804l-44.928,0.658c-10.124,0.147 -18.307,7.782 -19.559,17.542c-1.162,-0.25 -2.074,-0.503 -2.664,-0.761c-46.283,-20.126 -62.943,-34.691 -74.778,-136.938c-6.167,-9.396 -49.317,-15.566 -49.279,44.589c0.023,27.586 15.14,85.339 15.14,85.339c-120.113,0.083 -35.795,0.155 -108.295,0.196c-15.14,0.008 -27.412,13.642 -27.397,30.458c0.014,16.378 11.678,29.687 26.288,30.356zm248.802,101.429c0,-8.89 7.207,-16.101 16.101,-16.101c8.895,0 16.101,7.211 16.101,16.101c0,8.891 -7.206,16.101 -16.101,16.101c-8.894,0 -16.101,-7.21 -16.101,-16.101z"/>
 </g>
</svg>